<?xml version="1.0" encoding="UTF-8"?>
<svg id="Camada_1" data-name="Camada 1" xmlns="http://www.w3.org/2000/svg" version="1.1" viewBox="0 0 256 256">
  <defs>
    <style>
      .cls-1 {
        fill: #fff;
        stroke-width: 0px;
      }
    </style>
  </defs>
  <path class="cls-1" d="M253.2,216.2L200.6,20.2c-1.3-4.5-4.2-8.5-8.3-10.7s-8.8-3-13.5-1.8l-39.1,10.5c-1.3.4-2.4.8-3.5,1.4-3-5.3-8.7-8.8-15.3-8.8h-40.4c-3.8,0-7.2,1.1-10.1,3.2-2.9-2-6.3-3.2-10.1-3.2H19.9c-9.7,0-17.7,8-17.7,17.7v202c0,9.7,8,17.7,17.7,17.7h40.4c3.8,0,7.2-1.1,10.1-3.2,2.9,2,6.3,3.2,10.1,3.2h40.4c9.7,0,17.7-8,17.7-17.7V82.4l29.5,110c-.3,1.1-.3,2.4,0,3.7.4,1.3,1,2.3,1.8,3.2l9.8,36.6c1.3,4.5,4.2,8.5,8.3,10.7,2.8,1.6,5.8,2.4,8.8,2.4s3.2-.3,4.7-.6l39.1-10.5c4.5-1.3,8.5-4.2,10.7-8.3,2.4-4.2,3-8.8,1.8-13.5v.3ZM154.2,82.1l44.1-11.7,27.4,102.4-44.1,11.9-27.5-102.5h.1ZM142.1,34.1c.3-.4.6-.9,1.5-1.1h0l39.1-10.5h.6c.6,0,1,.3,1.3.4.4.3.9.6,1.1,1.5l8.5,31.4-44.1,11.7-8.5-31.4c-.3-.9,0-1.6.3-1.9h.1ZM80.5,25.9h40.4c1.4,0,2.5,1.1,2.5,2.5v154h-45.4V28.5c0-1.4,1.1-2.5,2.5-2.5ZM19.9,25.9h40.4c1.4,0,2.5,1.1,2.5,2.5v32.8H17.4V28.5c0-1.4,1.1-2.5,2.5-2.5ZM60.3,233H19.9c-1.4,0-2.5-1.1-2.5-2.5V76.4h45.4v154c0,1.4-1.1,2.5-2.5,2.5ZM120.9,233h-40.4c-1.4,0-2.5-1.1-2.5-2.5v-32.8h45.4v32.8c0,1.4-1.1,2.5-2.5,2.5ZM238.3,222c-.3.4-.6.9-1.5,1.1l-39.1,10.5c-.9.3-1.6,0-1.9-.3-.4-.3-.9-.6-1.1-1.5l-8.8-32.7,44.1-11.9,8.8,32.8c.3.9,0,1.6-.3,1.9h-.1Z"/>
</svg>